<mxfile host="app.diagrams.net" modified="2021-02-01T11:16:25.786Z" agent="5.0 (Windows)" etag="RwVOLrwTlPq17x7BOptz" version="14.2.9" type="github">
  <diagram id="3oyVqdaDdfX9TV3sVrVm" name="Page-1">
    <mxGraphModel dx="1422" dy="830" grid="1" gridSize="10" guides="1" tooltips="1" connect="1" arrows="1" fold="1" page="1" pageScale="1" pageWidth="850" pageHeight="1100" math="0" shadow="0">
      <root>
        <mxCell id="0" />
        <mxCell id="1" parent="0" />
        <mxCell id="OnPCaiBOU2DBpQOizJkD-10" style="edgeStyle=orthogonalEdgeStyle;rounded=0;orthogonalLoop=1;jettySize=auto;html=1;exitX=0.5;exitY=1;exitDx=0;exitDy=0;entryX=0.5;entryY=0;entryDx=0;entryDy=0;" parent="1" source="OnPCaiBOU2DBpQOizJkD-1" target="OnPCaiBOU2DBpQOizJkD-2" edge="1">
          <mxGeometry relative="1" as="geometry" />
        </mxCell>
        <mxCell id="OnPCaiBOU2DBpQOizJkD-1" value="Server Start" style="ellipse;whiteSpace=wrap;html=1;" parent="1" vertex="1">
          <mxGeometry x="140" y="40" width="130" height="40" as="geometry" />
        </mxCell>
        <mxCell id="OnPCaiBOU2DBpQOizJkD-11" style="edgeStyle=orthogonalEdgeStyle;rounded=0;orthogonalLoop=1;jettySize=auto;html=1;exitX=0.5;exitY=1;exitDx=0;exitDy=0;entryX=0.5;entryY=0;entryDx=0;entryDy=0;" parent="1" source="OnPCaiBOU2DBpQOizJkD-2" target="OnPCaiBOU2DBpQOizJkD-3" edge="1">
          <mxGeometry relative="1" as="geometry" />
        </mxCell>
        <mxCell id="OnPCaiBOU2DBpQOizJkD-2" value="Initial Setup" style="rounded=0;whiteSpace=wrap;html=1;" parent="1" vertex="1">
          <mxGeometry x="145" y="100" width="120" height="30" as="geometry" />
        </mxCell>
        <mxCell id="OnPCaiBOU2DBpQOizJkD-12" style="edgeStyle=orthogonalEdgeStyle;rounded=0;orthogonalLoop=1;jettySize=auto;html=1;exitX=0.5;exitY=1;exitDx=0;exitDy=0;entryX=0.5;entryY=0;entryDx=0;entryDy=0;" parent="1" source="OnPCaiBOU2DBpQOizJkD-3" target="OnPCaiBOU2DBpQOizJkD-4" edge="1">
          <mxGeometry relative="1" as="geometry" />
        </mxCell>
        <mxCell id="OnPCaiBOU2DBpQOizJkD-3" value="Await Packets/Connection" style="rounded=0;whiteSpace=wrap;html=1;" parent="1" vertex="1">
          <mxGeometry x="145" y="160" width="120" height="40" as="geometry" />
        </mxCell>
        <mxCell id="OnPCaiBOU2DBpQOizJkD-13" style="edgeStyle=orthogonalEdgeStyle;rounded=0;orthogonalLoop=1;jettySize=auto;html=1;exitX=0.5;exitY=1;exitDx=0;exitDy=0;entryX=0.5;entryY=0;entryDx=0;entryDy=0;" parent="1" source="OnPCaiBOU2DBpQOizJkD-4" target="OnPCaiBOU2DBpQOizJkD-7" edge="1">
          <mxGeometry relative="1" as="geometry" />
        </mxCell>
        <mxCell id="OnPCaiBOU2DBpQOizJkD-16" style="edgeStyle=orthogonalEdgeStyle;rounded=0;orthogonalLoop=1;jettySize=auto;html=1;exitX=1;exitY=0.5;exitDx=0;exitDy=0;entryX=0;entryY=0.5;entryDx=0;entryDy=0;" parent="1" source="OnPCaiBOU2DBpQOizJkD-4" target="OnPCaiBOU2DBpQOizJkD-5" edge="1">
          <mxGeometry relative="1" as="geometry" />
        </mxCell>
        <mxCell id="OnPCaiBOU2DBpQOizJkD-4" value="User Connect?" style="rhombus;whiteSpace=wrap;html=1;" parent="1" vertex="1">
          <mxGeometry x="150" y="230" width="110" height="110" as="geometry" />
        </mxCell>
        <mxCell id="OnPCaiBOU2DBpQOizJkD-17" style="edgeStyle=orthogonalEdgeStyle;rounded=0;orthogonalLoop=1;jettySize=auto;html=1;exitX=0.5;exitY=1;exitDx=0;exitDy=0;entryX=0.5;entryY=0;entryDx=0;entryDy=0;" parent="1" source="OnPCaiBOU2DBpQOizJkD-5" target="OnPCaiBOU2DBpQOizJkD-6" edge="1">
          <mxGeometry relative="1" as="geometry" />
        </mxCell>
        <mxCell id="OnPCaiBOU2DBpQOizJkD-5" value="Add client to connectedClients" style="rounded=0;whiteSpace=wrap;html=1;" parent="1" vertex="1">
          <mxGeometry x="330" y="255" width="120" height="60" as="geometry" />
        </mxCell>
        <mxCell id="OnPCaiBOU2DBpQOizJkD-18" style="edgeStyle=orthogonalEdgeStyle;rounded=0;orthogonalLoop=1;jettySize=auto;html=1;exitX=0;exitY=0.5;exitDx=0;exitDy=0;entryX=1;entryY=0.5;entryDx=0;entryDy=0;" parent="1" source="OnPCaiBOU2DBpQOizJkD-6" target="OnPCaiBOU2DBpQOizJkD-7" edge="1">
          <mxGeometry relative="1" as="geometry" />
        </mxCell>
        <mxCell id="OnPCaiBOU2DBpQOizJkD-6" value="Transmit new client to other clients" style="rounded=0;whiteSpace=wrap;html=1;" parent="1" vertex="1">
          <mxGeometry x="330" y="395" width="120" height="60" as="geometry" />
        </mxCell>
        <mxCell id="OnPCaiBOU2DBpQOizJkD-75" style="edgeStyle=orthogonalEdgeStyle;rounded=0;orthogonalLoop=1;jettySize=auto;html=1;exitX=0.5;exitY=1;exitDx=0;exitDy=0;entryX=0.5;entryY=0;entryDx=0;entryDy=0;fontSize=12;" parent="1" source="OnPCaiBOU2DBpQOizJkD-7" target="OnPCaiBOU2DBpQOizJkD-70" edge="1">
          <mxGeometry relative="1" as="geometry" />
        </mxCell>
        <mxCell id="OnPCaiBOU2DBpQOizJkD-104" style="edgeStyle=orthogonalEdgeStyle;rounded=0;orthogonalLoop=1;jettySize=auto;html=1;exitX=0;exitY=0.5;exitDx=0;exitDy=0;entryX=0;entryY=0.5;entryDx=0;entryDy=0;fontSize=12;" parent="1" source="OnPCaiBOU2DBpQOizJkD-7" target="OnPCaiBOU2DBpQOizJkD-3" edge="1">
          <mxGeometry relative="1" as="geometry">
            <Array as="points">
              <mxPoint x="90" y="425" />
              <mxPoint x="90" y="180" />
            </Array>
          </mxGeometry>
        </mxCell>
        <mxCell id="OnPCaiBOU2DBpQOizJkD-7" value="Client Transmit?" style="rhombus;whiteSpace=wrap;html=1;" parent="1" vertex="1">
          <mxGeometry x="150" y="370" width="110" height="110" as="geometry" />
        </mxCell>
        <mxCell id="OnPCaiBOU2DBpQOizJkD-20" value="Y" style="text;html=1;align=center;verticalAlign=middle;resizable=0;points=[];autosize=1;rounded=0;spacing=2;fontSize=15;fontStyle=1" parent="1" vertex="1">
          <mxGeometry x="275" y="255" width="30" height="30" as="geometry" />
        </mxCell>
        <mxCell id="OnPCaiBOU2DBpQOizJkD-21" value="N" style="text;html=1;align=center;verticalAlign=middle;resizable=0;points=[];autosize=1;fontSize=15;fontStyle=1" parent="1" vertex="1">
          <mxGeometry x="175" y="340" width="30" height="20" as="geometry" />
        </mxCell>
        <mxCell id="OnPCaiBOU2DBpQOizJkD-34" value="Client" style="swimlane;fontStyle=0;childLayout=stackLayout;horizontal=1;startSize=26;fillColor=none;horizontalStack=0;resizeParent=1;resizeParentMax=0;resizeLast=0;collapsible=1;marginBottom=0;rounded=0;fontSize=15;" parent="1" vertex="1">
          <mxGeometry x="530" y="40" width="140" height="190" as="geometry">
            <mxRectangle x="540" y="56" width="70" height="26" as="alternateBounds" />
          </mxGeometry>
        </mxCell>
        <mxCell id="OnPCaiBOU2DBpQOizJkD-35" value="+ serverIP: int" style="text;strokeColor=none;fillColor=none;align=left;verticalAlign=top;spacingLeft=4;spacingRight=4;overflow=hidden;rotatable=0;points=[[0,0.5],[1,0.5]];portConstraint=eastwest;" parent="OnPCaiBOU2DBpQOizJkD-34" vertex="1">
          <mxGeometry y="26" width="140" height="26" as="geometry" />
        </mxCell>
        <mxCell id="OnPCaiBOU2DBpQOizJkD-36" value="+ location: coord" style="text;strokeColor=none;fillColor=none;align=left;verticalAlign=top;spacingLeft=4;spacingRight=4;overflow=hidden;rotatable=0;points=[[0,0.5],[1,0.5]];portConstraint=eastwest;" parent="OnPCaiBOU2DBpQOizJkD-34" vertex="1">
          <mxGeometry y="52" width="140" height="26" as="geometry" />
        </mxCell>
        <mxCell id="OnPCaiBOU2DBpQOizJkD-68" value="+ name: string" style="text;strokeColor=none;fillColor=none;align=left;verticalAlign=top;spacingLeft=4;spacingRight=4;overflow=hidden;rotatable=0;points=[[0,0.5],[1,0.5]];portConstraint=eastwest;rounded=0;fontSize=12;" parent="OnPCaiBOU2DBpQOizJkD-34" vertex="1">
          <mxGeometry y="78" width="140" height="26" as="geometry" />
        </mxCell>
        <mxCell id="OnPCaiBOU2DBpQOizJkD-45" value="" style="line;strokeWidth=1;fillColor=none;align=left;verticalAlign=middle;spacingTop=-1;spacingLeft=3;spacingRight=3;rotatable=0;labelPosition=right;points=[];portConstraint=eastwest;rounded=0;fontSize=12;" parent="OnPCaiBOU2DBpQOizJkD-34" vertex="1">
          <mxGeometry y="104" width="140" height="8" as="geometry" />
        </mxCell>
        <mxCell id="OnPCaiBOU2DBpQOizJkD-67" value="+ awaitData(): void" style="text;strokeColor=none;fillColor=none;align=left;verticalAlign=top;spacingLeft=4;spacingRight=4;overflow=hidden;rotatable=0;points=[[0,0.5],[1,0.5]];portConstraint=eastwest;rounded=0;fontSize=12;" parent="OnPCaiBOU2DBpQOizJkD-34" vertex="1">
          <mxGeometry y="112" width="140" height="26" as="geometry" />
        </mxCell>
        <mxCell id="OnPCaiBOU2DBpQOizJkD-44" value="+ sendCoord(): void" style="text;strokeColor=none;fillColor=none;align=left;verticalAlign=top;spacingLeft=4;spacingRight=4;overflow=hidden;rotatable=0;points=[[0,0.5],[1,0.5]];portConstraint=eastwest;rounded=0;fontSize=12;" parent="OnPCaiBOU2DBpQOizJkD-34" vertex="1">
          <mxGeometry y="138" width="140" height="26" as="geometry" />
        </mxCell>
        <mxCell id="OnPCaiBOU2DBpQOizJkD-46" value="+ sendComms(): void" style="text;strokeColor=none;fillColor=none;align=left;verticalAlign=top;spacingLeft=4;spacingRight=4;overflow=hidden;rotatable=0;points=[[0,0.5],[1,0.5]];portConstraint=eastwest;rounded=0;fontSize=12;" parent="OnPCaiBOU2DBpQOizJkD-34" vertex="1">
          <mxGeometry y="164" width="140" height="26" as="geometry" />
        </mxCell>
        <mxCell id="OnPCaiBOU2DBpQOizJkD-38" value="coord" style="swimlane;fontStyle=0;childLayout=stackLayout;horizontal=1;startSize=26;fillColor=none;horizontalStack=0;resizeParent=1;resizeParentMax=0;resizeLast=0;collapsible=1;marginBottom=0;rounded=0;fontSize=15;" parent="1" vertex="1">
          <mxGeometry x="380" y="40" width="140" height="78" as="geometry" />
        </mxCell>
        <mxCell id="OnPCaiBOU2DBpQOizJkD-39" value="+ x: int" style="text;strokeColor=none;fillColor=none;align=left;verticalAlign=top;spacingLeft=4;spacingRight=4;overflow=hidden;rotatable=0;points=[[0,0.5],[1,0.5]];portConstraint=eastwest;" parent="OnPCaiBOU2DBpQOizJkD-38" vertex="1">
          <mxGeometry y="26" width="140" height="26" as="geometry" />
        </mxCell>
        <mxCell id="OnPCaiBOU2DBpQOizJkD-40" value="+ y: int" style="text;strokeColor=none;fillColor=none;align=left;verticalAlign=top;spacingLeft=4;spacingRight=4;overflow=hidden;rotatable=0;points=[[0,0.5],[1,0.5]];portConstraint=eastwest;" parent="OnPCaiBOU2DBpQOizJkD-38" vertex="1">
          <mxGeometry y="52" width="140" height="26" as="geometry" />
        </mxCell>
        <mxCell id="OnPCaiBOU2DBpQOizJkD-51" value="Server" style="swimlane;fontStyle=0;childLayout=stackLayout;horizontal=1;startSize=26;fillColor=none;horizontalStack=0;resizeParent=1;resizeParentMax=0;resizeLast=0;collapsible=1;marginBottom=0;rounded=0;fontSize=12;" parent="1" vertex="1">
          <mxGeometry x="530" y="340" width="220" height="234" as="geometry" />
        </mxCell>
        <mxCell id="OnPCaiBOU2DBpQOizJkD-52" value="+ connectedClients: &#xa;vector&lt;serverClient&gt;" style="text;strokeColor=none;fillColor=none;align=left;verticalAlign=top;spacingLeft=4;spacingRight=4;overflow=hidden;rotatable=0;points=[[0,0.5],[1,0.5]];portConstraint=eastwest;" parent="OnPCaiBOU2DBpQOizJkD-51" vertex="1">
          <mxGeometry y="26" width="220" height="44" as="geometry" />
        </mxCell>
        <mxCell id="OnPCaiBOU2DBpQOizJkD-53" value="+ serverIP: int" style="text;strokeColor=none;fillColor=none;align=left;verticalAlign=top;spacingLeft=4;spacingRight=4;overflow=hidden;rotatable=0;points=[[0,0.5],[1,0.5]];portConstraint=eastwest;" parent="OnPCaiBOU2DBpQOizJkD-51" vertex="1">
          <mxGeometry y="70" width="220" height="26" as="geometry" />
        </mxCell>
        <mxCell id="OnPCaiBOU2DBpQOizJkD-55" value="" style="line;strokeWidth=1;fillColor=none;align=left;verticalAlign=middle;spacingTop=-1;spacingLeft=3;spacingRight=3;rotatable=0;labelPosition=right;points=[];portConstraint=eastwest;rounded=0;fontSize=12;" parent="OnPCaiBOU2DBpQOizJkD-51" vertex="1">
          <mxGeometry y="96" width="220" height="8" as="geometry" />
        </mxCell>
        <mxCell id="OnPCaiBOU2DBpQOizJkD-54" value="+ transmitLocations(): void" style="text;strokeColor=none;fillColor=none;align=left;verticalAlign=top;spacingLeft=4;spacingRight=4;overflow=hidden;rotatable=0;points=[[0,0.5],[1,0.5]];portConstraint=eastwest;" parent="OnPCaiBOU2DBpQOizJkD-51" vertex="1">
          <mxGeometry y="104" width="220" height="26" as="geometry" />
        </mxCell>
        <mxCell id="OnPCaiBOU2DBpQOizJkD-57" value="+ transmitVoice(): void" style="text;strokeColor=none;fillColor=none;align=left;verticalAlign=top;spacingLeft=4;spacingRight=4;overflow=hidden;rotatable=0;points=[[0,0.5],[1,0.5]];portConstraint=eastwest;rounded=0;fontSize=12;" parent="OnPCaiBOU2DBpQOizJkD-51" vertex="1">
          <mxGeometry y="130" width="220" height="26" as="geometry" />
        </mxCell>
        <mxCell id="OnPCaiBOU2DBpQOizJkD-69" value="+ nearbyUsers(serverClient): &#xa;vector&lt;serverClient&gt;" style="text;strokeColor=none;fillColor=none;align=left;verticalAlign=top;spacingLeft=4;spacingRight=4;overflow=hidden;rotatable=0;points=[[0,0.5],[1,0.5]];portConstraint=eastwest;rounded=0;fontSize=12;" parent="OnPCaiBOU2DBpQOizJkD-51" vertex="1">
          <mxGeometry y="156" width="220" height="34" as="geometry" />
        </mxCell>
        <mxCell id="OnPCaiBOU2DBpQOizJkD-58" value="+ binaurifyVoice(vector&lt;serverclient&gt;): &#xa;vector&lt;audioPacketTbd&gt;" style="text;strokeColor=none;fillColor=none;align=left;verticalAlign=top;spacingLeft=4;spacingRight=4;overflow=hidden;rotatable=0;points=[[0,0.5],[1,0.5]];portConstraint=eastwest;rounded=0;fontSize=12;" parent="OnPCaiBOU2DBpQOizJkD-51" vertex="1">
          <mxGeometry y="190" width="220" height="44" as="geometry" />
        </mxCell>
        <mxCell id="OnPCaiBOU2DBpQOizJkD-59" value="nearbyUser" style="swimlane;fontStyle=0;childLayout=stackLayout;horizontal=1;startSize=26;fillColor=none;horizontalStack=0;resizeParent=1;resizeParentMax=0;resizeLast=0;collapsible=1;marginBottom=0;rounded=0;fontSize=12;" parent="1" vertex="1">
          <mxGeometry x="530" y="246" width="140" height="78" as="geometry" />
        </mxCell>
        <mxCell id="OnPCaiBOU2DBpQOizJkD-60" value="+ user: serverClient" style="text;strokeColor=none;fillColor=none;align=left;verticalAlign=top;spacingLeft=4;spacingRight=4;overflow=hidden;rotatable=0;points=[[0,0.5],[1,0.5]];portConstraint=eastwest;" parent="OnPCaiBOU2DBpQOizJkD-59" vertex="1">
          <mxGeometry y="26" width="140" height="26" as="geometry" />
        </mxCell>
        <mxCell id="OnPCaiBOU2DBpQOizJkD-61" value="+ sendVol: int" style="text;strokeColor=none;fillColor=none;align=left;verticalAlign=top;spacingLeft=4;spacingRight=4;overflow=hidden;rotatable=0;points=[[0,0.5],[1,0.5]];portConstraint=eastwest;" parent="OnPCaiBOU2DBpQOizJkD-59" vertex="1">
          <mxGeometry y="52" width="140" height="26" as="geometry" />
        </mxCell>
        <mxCell id="OnPCaiBOU2DBpQOizJkD-63" value="serverClient" style="swimlane;fontStyle=0;childLayout=stackLayout;horizontal=1;startSize=26;fillColor=none;horizontalStack=0;resizeParent=1;resizeParentMax=0;resizeLast=0;collapsible=1;marginBottom=0;rounded=0;fontSize=12;" parent="1" vertex="1">
          <mxGeometry x="690" y="40" width="140" height="104" as="geometry" />
        </mxCell>
        <mxCell id="OnPCaiBOU2DBpQOizJkD-64" value="+ userIP: int" style="text;strokeColor=none;fillColor=none;align=left;verticalAlign=top;spacingLeft=4;spacingRight=4;overflow=hidden;rotatable=0;points=[[0,0.5],[1,0.5]];portConstraint=eastwest;" parent="OnPCaiBOU2DBpQOizJkD-63" vertex="1">
          <mxGeometry y="26" width="140" height="26" as="geometry" />
        </mxCell>
        <mxCell id="OnPCaiBOU2DBpQOizJkD-65" value="+ location: coord" style="text;strokeColor=none;fillColor=none;align=left;verticalAlign=top;spacingLeft=4;spacingRight=4;overflow=hidden;rotatable=0;points=[[0,0.5],[1,0.5]];portConstraint=eastwest;" parent="OnPCaiBOU2DBpQOizJkD-63" vertex="1">
          <mxGeometry y="52" width="140" height="26" as="geometry" />
        </mxCell>
        <mxCell id="OnPCaiBOU2DBpQOizJkD-66" value="+ name: string" style="text;strokeColor=none;fillColor=none;align=left;verticalAlign=top;spacingLeft=4;spacingRight=4;overflow=hidden;rotatable=0;points=[[0,0.5],[1,0.5]];portConstraint=eastwest;" parent="OnPCaiBOU2DBpQOizJkD-63" vertex="1">
          <mxGeometry y="78" width="140" height="26" as="geometry" />
        </mxCell>
        <mxCell id="OnPCaiBOU2DBpQOizJkD-76" style="edgeStyle=orthogonalEdgeStyle;rounded=0;orthogonalLoop=1;jettySize=auto;html=1;exitX=0.5;exitY=1;exitDx=0;exitDy=0;entryX=0.5;entryY=0;entryDx=0;entryDy=0;fontSize=12;" parent="1" source="OnPCaiBOU2DBpQOizJkD-70" target="OnPCaiBOU2DBpQOizJkD-71" edge="1">
          <mxGeometry relative="1" as="geometry" />
        </mxCell>
        <mxCell id="OnPCaiBOU2DBpQOizJkD-81" style="edgeStyle=orthogonalEdgeStyle;rounded=0;orthogonalLoop=1;jettySize=auto;html=1;exitX=0;exitY=0.5;exitDx=0;exitDy=0;entryX=1;entryY=0.5;entryDx=0;entryDy=0;fontSize=12;" parent="1" source="OnPCaiBOU2DBpQOizJkD-70" target="OnPCaiBOU2DBpQOizJkD-72" edge="1">
          <mxGeometry relative="1" as="geometry" />
        </mxCell>
        <mxCell id="OnPCaiBOU2DBpQOizJkD-70" value="Movement?" style="rhombus;whiteSpace=wrap;html=1;rounded=0;fontSize=12;" parent="1" vertex="1">
          <mxGeometry x="220" y="510" width="80" height="80" as="geometry" />
        </mxCell>
        <mxCell id="OnPCaiBOU2DBpQOizJkD-77" style="edgeStyle=orthogonalEdgeStyle;rounded=0;orthogonalLoop=1;jettySize=auto;html=1;exitX=0;exitY=0.5;exitDx=0;exitDy=0;fontSize=12;entryX=1;entryY=0.5;entryDx=0;entryDy=0;" parent="1" source="OnPCaiBOU2DBpQOizJkD-71" target="OnPCaiBOU2DBpQOizJkD-73" edge="1">
          <mxGeometry relative="1" as="geometry">
            <mxPoint x="180" y="680" as="targetPoint" />
          </mxGeometry>
        </mxCell>
        <mxCell id="OnPCaiBOU2DBpQOizJkD-71" value="Speech?" style="rhombus;whiteSpace=wrap;html=1;rounded=0;fontSize=12;" parent="1" vertex="1">
          <mxGeometry x="220" y="640" width="80" height="80" as="geometry" />
        </mxCell>
        <mxCell id="OnPCaiBOU2DBpQOizJkD-85" style="edgeStyle=orthogonalEdgeStyle;rounded=0;orthogonalLoop=1;jettySize=auto;html=1;exitX=0;exitY=0.5;exitDx=0;exitDy=0;entryX=0;entryY=0.5;entryDx=0;entryDy=0;fontSize=12;" parent="1" source="OnPCaiBOU2DBpQOizJkD-72" target="OnPCaiBOU2DBpQOizJkD-3" edge="1">
          <mxGeometry relative="1" as="geometry" />
        </mxCell>
        <mxCell id="OnPCaiBOU2DBpQOizJkD-72" value="Transmit to all clients" style="rounded=0;whiteSpace=wrap;html=1;fontSize=12;" parent="1" vertex="1">
          <mxGeometry x="80" y="531" width="120" height="38" as="geometry" />
        </mxCell>
        <mxCell id="OnPCaiBOU2DBpQOizJkD-86" style="edgeStyle=orthogonalEdgeStyle;rounded=0;orthogonalLoop=1;jettySize=auto;html=1;exitX=0;exitY=0.5;exitDx=0;exitDy=0;entryX=0;entryY=0.5;entryDx=0;entryDy=0;fontSize=12;" parent="1" source="OnPCaiBOU2DBpQOizJkD-73" target="OnPCaiBOU2DBpQOizJkD-3" edge="1">
          <mxGeometry relative="1" as="geometry" />
        </mxCell>
        <mxCell id="OnPCaiBOU2DBpQOizJkD-73" value="Binaurify, transmit to nearbyClients" style="rounded=0;whiteSpace=wrap;html=1;fontSize=12;" parent="1" vertex="1">
          <mxGeometry x="55" y="650" width="120" height="60" as="geometry" />
        </mxCell>
        <mxCell id="OnPCaiBOU2DBpQOizJkD-92" style="edgeStyle=orthogonalEdgeStyle;rounded=0;orthogonalLoop=1;jettySize=auto;html=1;exitX=0.5;exitY=1;exitDx=0;exitDy=0;entryX=0;entryY=0.5;entryDx=0;entryDy=0;fontSize=12;" parent="1" source="OnPCaiBOU2DBpQOizJkD-79" target="OnPCaiBOU2DBpQOizJkD-3" edge="1">
          <mxGeometry relative="1" as="geometry">
            <Array as="points">
              <mxPoint x="440" y="740" />
              <mxPoint x="10" y="740" />
              <mxPoint x="10" y="180" />
            </Array>
          </mxGeometry>
        </mxCell>
        <mxCell id="OnPCaiBOU2DBpQOizJkD-79" value="Error: Log transmission -&amp;gt; ignore" style="rounded=0;whiteSpace=wrap;html=1;" parent="1" vertex="1">
          <mxGeometry x="390" y="655" width="110" height="50" as="geometry" />
        </mxCell>
        <mxCell id="OnPCaiBOU2DBpQOizJkD-89" value="&lt;b&gt;N&lt;/b&gt;" style="text;html=1;strokeColor=none;fillColor=none;align=center;verticalAlign=middle;whiteSpace=wrap;rounded=0;fontSize=15;" parent="1" vertex="1">
          <mxGeometry x="250" y="600" width="40" height="20" as="geometry" />
        </mxCell>
        <mxCell id="OnPCaiBOU2DBpQOizJkD-90" style="edgeStyle=orthogonalEdgeStyle;rounded=0;orthogonalLoop=1;jettySize=auto;html=1;exitX=1;exitY=0.5;exitDx=0;exitDy=0;fontSize=12;entryX=0;entryY=0.5;entryDx=0;entryDy=0;" parent="1" source="OnPCaiBOU2DBpQOizJkD-71" target="OnPCaiBOU2DBpQOizJkD-79" edge="1">
          <mxGeometry relative="1" as="geometry">
            <mxPoint x="330" y="630" as="targetPoint" />
            <mxPoint x="300" y="680" as="sourcePoint" />
          </mxGeometry>
        </mxCell>
        <mxCell id="OnPCaiBOU2DBpQOizJkD-93" value="Y" style="text;html=1;align=center;verticalAlign=middle;resizable=0;points=[];autosize=1;rounded=0;spacing=2;fontSize=15;fontStyle=1" parent="1" vertex="1">
          <mxGeometry x="220" y="470" width="30" height="30" as="geometry" />
        </mxCell>
        <mxCell id="OnPCaiBOU2DBpQOizJkD-96" value="Y" style="text;html=1;align=center;verticalAlign=middle;resizable=0;points=[];autosize=1;rounded=0;spacing=2;fontSize=15;fontStyle=1" parent="1" vertex="1">
          <mxGeometry x="200" y="520" width="30" height="30" as="geometry" />
        </mxCell>
        <mxCell id="OnPCaiBOU2DBpQOizJkD-97" value="Y" style="text;html=1;align=center;verticalAlign=middle;resizable=0;points=[];autosize=1;rounded=0;spacing=2;fontSize=15;fontStyle=1" parent="1" vertex="1">
          <mxGeometry x="190" y="650" width="30" height="30" as="geometry" />
        </mxCell>
        <mxCell id="OnPCaiBOU2DBpQOizJkD-101" value="&lt;b&gt;N&lt;/b&gt;" style="text;html=1;strokeColor=none;fillColor=none;align=center;verticalAlign=middle;whiteSpace=wrap;rounded=0;fontSize=15;" parent="1" vertex="1">
          <mxGeometry x="310" y="660" width="40" height="20" as="geometry" />
        </mxCell>
        <mxCell id="OnPCaiBOU2DBpQOizJkD-102" value="&lt;b&gt;N&lt;/b&gt;" style="text;html=1;strokeColor=none;fillColor=none;align=center;verticalAlign=middle;whiteSpace=wrap;rounded=0;fontSize=15;" parent="1" vertex="1">
          <mxGeometry x="80" y="395" width="40" height="20" as="geometry" />
        </mxCell>
        <mxCell id="IpOnE3O05JCVF8OHvghK-1" value="&lt;h1&gt;&lt;font data-font-src=&quot;https://fonts.googleapis.com/css?family=Source+Code+Pro&quot; face=&quot;Source Code Pro&quot;&gt;Roadmap&lt;/font&gt;&lt;/h1&gt;&lt;div&gt;&lt;font data-font-src=&quot;https://fonts.googleapis.com/css?family=Source+Code+Pro&quot; face=&quot;Source Code Pro&quot;&gt;Priority&lt;br&gt;&lt;/font&gt;&lt;/div&gt;&lt;div&gt;&lt;font data-font-src=&quot;https://fonts.googleapis.com/css?family=Source+Code+Pro&quot; face=&quot;Source Code Pro&quot;&gt;- CLI&amp;nbsp;&amp;nbsp;&amp;nbsp;&amp;nbsp;&amp;nbsp;&amp;nbsp;&amp;nbsp;&amp;nbsp;&amp;nbsp;&amp;nbsp;&amp;nbsp; ☐&lt;/font&gt;&lt;/div&gt;&lt;div&gt;&lt;font data-font-src=&quot;https://fonts.googleapis.com/css?family=Source+Code+Pro&quot; face=&quot;Source Code Pro&quot;&gt;- working server ☐&lt;/font&gt;&lt;/div&gt;&lt;div&gt;&lt;font data-font-src=&quot;https://fonts.googleapis.com/css?family=Source+Code+Pro&quot; face=&quot;Source Code Pro&quot;&gt;- working client ☐&lt;/font&gt;&lt;/div&gt;&lt;div&gt;&lt;font data-font-src=&quot;https://fonts.googleapis.com/css?family=Source+Code+Pro&quot; face=&quot;Source Code Pro&quot;&gt;- user settings&amp;nbsp; &lt;/font&gt;&lt;font data-font-src=&quot;https://fonts.googleapis.com/css?family=Source+Code+Pro&quot; face=&quot;Source Code Pro&quot;&gt;&lt;font data-font-src=&quot;https://fonts.googleapis.com/css?family=Source+Code+Pro&quot; face=&quot;Source Code Pro&quot;&gt;☐&lt;/font&gt;&lt;/font&gt;&lt;/div&gt;&lt;div&gt;&lt;font data-font-src=&quot;https://fonts.googleapis.com/css?family=Source+Code+Pro&quot; face=&quot;Source Code Pro&quot;&gt;&lt;br&gt;&lt;/font&gt;&lt;/div&gt;&lt;div&gt;&lt;font data-font-src=&quot;https://fonts.googleapis.com/css?family=Source+Code+Pro&quot; face=&quot;Source Code Pro&quot;&gt;Back-burner&lt;br&gt;&lt;/font&gt;&lt;/div&gt;&lt;div&gt;&lt;font data-font-src=&quot;https://fonts.googleapis.com/css?family=Source+Code+Pro&quot; face=&quot;Source Code Pro&quot;&gt;- minimap&amp;nbsp;&amp;nbsp;&amp;nbsp;&amp;nbsp;&amp;nbsp;&amp;nbsp;&amp;nbsp; &lt;/font&gt;&lt;font data-font-src=&quot;https://fonts.googleapis.com/css?family=Source+Code+Pro&quot; face=&quot;Source Code Pro&quot;&gt;&lt;font data-font-src=&quot;https://fonts.googleapis.com/css?family=Source+Code+Pro&quot; face=&quot;Source Code Pro&quot;&gt;☐&lt;/font&gt;&lt;/font&gt;&lt;/div&gt;&lt;div&gt;&lt;font data-font-src=&quot;https://fonts.googleapis.com/css?family=Source+Code+Pro&quot; face=&quot;Source Code Pro&quot;&gt;- larger areas&amp;nbsp;&amp;nbsp; &lt;/font&gt;&lt;font data-font-src=&quot;https://fonts.googleapis.com/css?family=Source+Code+Pro&quot; face=&quot;Source Code Pro&quot;&gt;&lt;font data-font-src=&quot;https://fonts.googleapis.com/css?family=Source+Code+Pro&quot; face=&quot;Source Code Pro&quot;&gt;☐&lt;/font&gt;&lt;/font&gt;&lt;/div&gt;&lt;div&gt;&lt;br&gt;&lt;/div&gt;" style="text;html=1;strokeColor=none;spacing=5;spacingTop=-20;whiteSpace=wrap;overflow=hidden;rounded=0;shadow=0;glass=0;sketch=0;fillColor=#ffffff;gradientDirection=north;gradientColor=#CCCCCC;" vertex="1" parent="1">
          <mxGeometry x="530" y="600" width="270" height="265" as="geometry" />
        </mxCell>
      </root>
    </mxGraphModel>
  </diagram>
</mxfile>
